<svg id="Group_6" data-name="Group 6" xmlns="http://www.w3.org/2000/svg" width="1536" height="1536" viewBox="0 0 1536 1536">
  <g id="WeeklyXamarinIcon" transform="translate(212.282 248.85)">
    <path id="Path_9" data-name="Path 9" d="M1085.242,380.5l-1.488,1L611.914,695.8l-56.99,37.959L495.2,693.964,26.093,381.5l-1.938-1.28L554.473,27Z" transform="translate(1.576)" fill="#edab37"/>
    <g id="Group_3" data-name="Group 3" transform="translate(113.363 104.419)">
      <path id="Path_10" data-name="Path 10" d="M294.8,40.3c-23.922.052-47.338,13.635-59.383,34.349L48.1,400.038c-11.853,20.772-11.853,47.926,0,68.7L235.416,794.128c12.045,20.714,35.461,34.3,59.383,34.349H669.438c23.922-.052,47.338-13.635,59.383-34.349L916.14,468.736c11.854-20.772,11.854-47.926,0-68.7L728.821,74.647c-12.045-20.714-35.461-34.3-59.383-34.349Z" transform="translate(-39.207 -40.298)" fill="#3498db"/>
      <path id="Path_11" data-name="Path 11" d="M89.232,73.028a7.874,7.874,0,0,1,1.572,0h64.617a8.52,8.52,0,0,1,7.068,4.2L272.1,272.561a8.386,8.386,0,0,1,1.042,3.15,8.386,8.386,0,0,1,1.042-3.15L383.546,77.225a8.542,8.542,0,0,1,7.324-4.2h64.617c5.723.052,10.008,7.26,7.324,12.325L355.816,276.759,462.811,467.9c2.94,5.094-1.455,12.633-7.324,12.587H390.87a8.554,8.554,0,0,1-7.324-4.46L274.187,280.694a8.491,8.491,0,0,1-1.042-3.15,8.386,8.386,0,0,1-1.042,3.15L162.489,476.03a8.548,8.548,0,0,1-7.068,4.46H90.8c-5.868.052-10.258-7.493-7.324-12.587l107-191.144L83.48,85.352c-2.562-4.623.565-11.335,5.752-12.325Z" transform="translate(169.761 117.331)" fill="#fff"/>
    </g>
    <path id="Path_12" data-name="Path 12" d="M1086.022,458.106H23.828v-1.523L496.775,141.562,556.5,181.354,613.49,143.4Z" transform="translate(0 552.402)" fill="#ffcf56"/>
    <path id="Path_13" data-name="Path 13" d="M496.775,400.353,23.828,715.374V87.891h3.841Z" transform="translate(0 293.611)" fill="#f5bb41"/>
    <path id="Path_14" data-name="Path 14" d="M599.34,87.891V716.9h-1.7L125.112,402.186,596.952,87.891Z" transform="translate(488.378 293.611)" fill="#f5bb41"/>
    <line id="Line_4" data-name="Line 4" x1="1.903" y2="1.28" transform="translate(23.828 380.223)" fill="none" stroke="#3fff45" stroke-miterlimit="10" stroke-width="0.824"/>
  </g>
  <rect id="Rectangle_60" data-name="Rectangle 60" width="1536" height="1536" fill="none"/>
</svg>
